<?xml version="1.0" encoding="utf8" standalone="no"?>
<!DOCTYPE svg PUBLIC "-//W3C//DTD SVG 20010904//EN" "http://www.w3.org/TR/2001/REC-SVG-20010904/DTD/svg10.dtd">
<svg viewBox="0 0 60 60" xmlns="http://www.w3.org/2000/svg">
<defs>
<linearGradient>
<stop offset="0"/>
<stop offset="1" stop-color="#fff"/>
</linearGradient>
</defs>
<path d="m5.43302,8.48668c-.52625,0-.96875.4425-.96875.96875v4.875c-.00115.02498-.03125.03722-.03125.0625v37c0,.8838.70996,1.59375 1.59375,1.59375h37.28125c.88379,0 1.59375-.70996 1.59375-1.59375v-37c0-.88379-.70996-1.59375-1.59375-1.59375h-14.71875v-3.34375c0-.52625-.4425-.96875-.96875-.96875h-22.1875z" fill="#b3b3b3" fill-rule="evenodd" stroke="#333" stroke-linejoin="round" stroke-width="3.125"/>
<path d="m26.62755,23.39802h37.28584a1.5953,1.5953 0 0,1 1.5953,1.5953v30.25977a1.5953,1.5953 0 0,1 -1.5953,1.5953h-37.28584a1.5953,1.5953 0 0,1 -1.5953-1.5953v-30.25977a1.5953,1.5953 0 0,1 1.5953-1.5953" fill="#7f7f7f" fill-rule="evenodd" stroke="#333" stroke-linejoin="round" stroke-width="3.23511" transform="matrix(1.000000,.000000,-.359650,.933087,.000000,.000000)"/>
<g transform="translate(1.01623,.23301)">
<path d="m34.35505,43.33144a10.43376,7.25273 0 1,0 -20.86751,0 10.43376,7.25273 0 1,0 20.86751,0z" fill="#333" fill-rule="evenodd" stroke="#333" stroke-width="5" transform="matrix(.498033,-.108839,-.211242,.487859,22.03068,26.00458)"/>
<path d="m29.95492,43.52609 6.3285-16.47121" fill="none" stroke="#333" stroke-linecap="round" stroke-linejoin="round" stroke-width="2.34509"/>
<path d="m36.18313,25.60624c-.85543.67318-.92508,2.30251-1.4324,3.31227 8.65671-.78537 4.32594,11.83415 5.82473,8.24389 2.46082-13.23909-3.5369-12.22933-4.39233-11.55616z" fill="#333" fill-rule="evenodd" stroke="#333" stroke-linejoin="round" stroke-width=".56841"/>
</g>
</svg>
